<svg xmlns="http://www.w3.org/2000/svg" viewBox="0 0 800 1200">
  <!-- Header -->
  <rect x="0" y="0" width="800" height="80" fill="#f0f0f0" stroke="#333"/>
  <rect x="20" y="10" width="100" height="60" fill="#ddd" stroke="#333"/>
  <text x="70" y="45" text-anchor="middle" fill="#666">Logo</text>

  <!-- Hero Section -->
  <rect x="0" y="80" width="800" height="300" fill="#ddd" stroke="#333"/>
  <text x="400" y="180" text-anchor="middle" font-size="24">Rafael Rafting Site Plan</text>
  <rect x="100" y="220" width="600" height="100" fill="rgba(255,255,255,0.8)"/>
  <text x="400" y="270" text-anchor="middle" font-size="14">Mission Statement</text>

  <!-- History Section -->
  <text x="400" y="420" text-anchor="middle" font-size="20">History</text>
  <rect x="20" y="450" width="370" height="200" fill="#fff" stroke="#333"/>
  <rect x="410" y="450" width="370" height="200" fill="#fff" stroke="#333"/>

  <!-- Adventure Gallery -->
  <text x="400" y="700" text-anchor="middle" font-size="20">Adventure Awaits You!</text>
  <rect x="20" y="730" width="180" height="120" fill="#ddd" stroke="#333"/>
  <rect x="210" y="730" width="180" height="120" fill="#ddd" stroke="#333"/>
  <rect x="400" y="730" width="180" height="120" fill="#ddd" stroke="#333"/>
  <rect x="590" y="730" width="180" height="120" fill="#ddd" stroke="#333"/>
  <rect x="20" y="860" width="180" height="120" fill="#ddd" stroke="#333"/>
  <rect x="210" y="860" width="180" height="120" fill="#ddd" stroke="#333"/>
  <rect x="400" y="860" width="180" height="120" fill="#ddd" stroke="#333"/>
  <rect x="590" y="860" width="180" height="120" fill="#ddd" stroke="#333"/>
</svg>
